<svg width="151" height="76" viewBox="0 0 151 76" fill="none" xmlns="http://www.w3.org/2000/svg">
<path d="M72.4994 59.4529C66.6308 59.4529 60.8939 57.7102 56.0143 54.4452C51.1347 51.1801 47.3316 46.5394 45.0857 41.1099C42.8399 35.6803 42.2523 29.7058 43.3972 23.9418C44.5421 18.1778 47.3681 12.8833 51.5179 8.72768C55.6676 4.57208 60.9547 1.74209 66.7106 0.59556C72.4665 -0.550967 78.4326 0.0374706 83.8545 2.28646C89.2765 4.53546 93.9107 8.34399 97.1711 13.2305C100.432 18.1169 102.172 23.8618 102.172 29.7387C102.16 37.6158 99.0302 45.167 93.468 50.7369C87.9059 56.3069 80.3654 59.4412 72.4994 59.4529ZM72.4994 27.9903C72.156 27.9903 71.8204 28.0923 71.5348 28.2833C71.2493 28.4743 71.0268 28.7459 70.8954 29.0636C70.764 29.3813 70.7296 29.7308 70.7966 30.0681C70.8636 30.4054 71.0289 30.7152 71.2717 30.9583C71.5146 31.2015 71.8239 31.3671 72.1607 31.4342C72.4975 31.5012 72.8466 31.4668 73.1638 31.3352C73.4811 31.2036 73.7522 30.9808 73.943 30.6949C74.1338 30.4089 74.2356 30.0728 74.2356 29.7289C74.235 29.268 74.0518 28.8261 73.7264 28.5002C73.4009 28.1743 72.9597 27.9909 72.4994 27.9903Z" fill="#FF0000"/>
<path d="M146.661 7.52187C144.04 4.89908 140.486 3.42578 136.781 3.42578C133.075 3.42578 129.521 4.89908 126.9 7.52187L114.563 19.8741L102.228 7.52187C99.5842 5.01521 96.0678 3.64059 92.4272 3.69047C88.7866 3.74035 85.3091 5.21079 82.7346 7.78895C80.1601 10.3671 78.6917 13.8495 78.6419 17.4952C78.5921 21.141 79.9648 24.6623 82.4679 27.31L114.563 59.4528L146.661 27.31C149.28 24.6853 150.751 21.1265 150.751 17.4159C150.751 13.7054 149.28 10.1466 146.661 7.52187Z" fill="#066EF1"/>
<path d="M46.1523 31.465H28.7069V13.9976C28.7069 10.2852 27.2342 6.72484 24.6129 4.09979C21.9915 1.47474 18.4362 0 14.729 0C11.0218 0 7.46649 1.47474 4.84512 4.09979C2.22376 6.72484 0.751099 10.2852 0.751099 13.9976V59.4528H46.1425C49.8496 59.4528 53.405 57.9781 56.0263 55.353C58.6477 52.728 60.1204 49.1676 60.1204 45.4552C60.1204 41.7429 58.6477 38.1825 56.0263 35.5575C53.405 32.9324 49.8496 31.4577 46.1425 31.4577" fill="#066EF1"/>
<path d="M46.1523 31.4651H42.8761C43.1541 36.1578 44.5393 40.7176 46.9179 44.7704C49.2965 48.8231 52.6008 52.2534 56.5597 54.7797C58.3618 52.7691 59.5434 50.2786 59.9615 47.6096C60.3797 44.9406 60.0165 42.2075 58.916 39.7409C57.8154 37.2742 56.0246 35.1798 53.7603 33.7111C51.4959 32.2424 48.8551 31.4623 46.1572 31.4651H46.1523ZM87.728 4.22388C85.4956 5.00205 83.4973 6.33559 81.9207 8.09928C80.3441 9.86298 79.241 11.999 78.7148 14.3067C78.1887 16.6145 78.2569 19.0182 78.913 21.2923C79.569 23.5665 80.7914 25.6363 82.4654 27.3076L98.7386 43.6086C102.296 36.882 103.136 29.0441 101.087 21.7144C99.038 14.3847 94.2556 8.12329 87.728 4.22388Z" fill="#052B6C"/>
<path d="M14.3636 72.2987H13.9442C13.8415 72.2987 13.7429 72.2578 13.6702 72.1851C13.5976 72.1123 13.5568 72.0136 13.5568 71.9107C13.5568 71.8078 13.5976 71.7091 13.6702 71.6363C13.7429 71.5636 13.8415 71.5227 13.9442 71.5227H14.3636V70.3366C14.3616 70.213 14.4084 70.0937 14.4938 70.0044C14.5792 69.9152 14.6963 69.8634 14.8197 69.8602C14.9472 69.8601 15.0698 69.9098 15.1614 69.9988C15.2529 70.0877 15.3063 70.2089 15.3101 70.3366V71.5227H15.8521C15.9548 71.5227 16.0534 71.5636 16.126 71.6363C16.1987 71.7091 16.2395 71.8078 16.2395 71.9107C16.2395 72.0136 16.1987 72.1123 16.126 72.1851C16.0534 72.2578 15.9548 72.2987 15.8521 72.2987H15.2954V75.3561C15.291 75.4833 15.2373 75.6039 15.1458 75.6923C15.0543 75.7807 14.9321 75.8301 14.805 75.83C14.6818 75.8274 14.5647 75.7761 14.4792 75.6873C14.3937 75.5985 14.3469 75.4794 14.3488 75.3561L14.3636 72.2987Z" fill="#066EF1"/>
<path d="M23.1598 73.9857H20.1975C20.2784 74.6439 20.8081 75.054 21.4997 75.054C21.8781 75.0564 22.2421 74.909 22.5124 74.6439C22.5918 74.5671 22.6959 74.5212 22.8061 74.5145C22.9162 74.5077 23.0251 74.5406 23.1132 74.607C23.1538 74.6443 23.1865 74.6894 23.2095 74.7395C23.2324 74.7896 23.2452 74.8437 23.247 74.8988C23.2488 74.9539 23.2397 75.0088 23.2201 75.0603C23.2005 75.1119 23.1708 75.1589 23.1329 75.1989C22.9156 75.4221 22.6542 75.5975 22.3654 75.7138C22.0765 75.8301 21.7666 75.8847 21.4555 75.8742C21.1623 75.8823 20.8706 75.8297 20.5986 75.7197C20.3266 75.6097 20.0802 75.4446 19.8749 75.2348C19.6695 75.025 19.5097 74.7751 19.4052 74.5006C19.3008 74.226 19.2541 73.9329 19.2681 73.6395C19.2546 73.3442 19.3036 73.0493 19.4118 72.7742C19.52 72.4992 19.6849 72.2501 19.8959 72.0433C20.1011 71.8411 20.3451 71.6827 20.6132 71.5776C20.8812 71.4726 21.1678 71.4229 21.4555 71.4318C21.7323 71.4224 22.0082 71.469 22.2665 71.5691C22.5248 71.6691 22.7603 71.8204 22.9587 72.0138C23.1618 72.2152 23.3222 72.4556 23.4301 72.7206C23.5379 72.9857 23.5912 73.2698 23.5865 73.556C23.5869 73.6123 23.5761 73.6681 23.5548 73.7203C23.5335 73.7724 23.5021 73.8198 23.4624 73.8597C23.4228 73.8997 23.3756 73.9314 23.3237 73.953C23.2718 73.9746 23.2161 73.9857 23.1598 73.9857ZM22.6694 73.3006C22.6431 73.0024 22.502 72.7262 22.2758 72.5305C22.0497 72.3348 21.7564 72.2349 21.458 72.252C21.1541 72.2323 20.8542 72.33 20.6202 72.5251C20.3861 72.7202 20.2357 72.9978 20.2 73.3006H22.6694Z" fill="#066EF1"/>
<path d="M28.0447 75.3561C28.0403 75.4833 27.9866 75.6039 27.8951 75.6923C27.8036 75.7807 27.6814 75.8301 27.5543 75.83C27.4311 75.8274 27.314 75.7761 27.2285 75.6873C27.143 75.5985 27.0962 75.4794 27.0981 75.3561V69.6318C27.0962 69.5085 27.143 69.3894 27.2285 69.3005C27.314 69.2117 27.4311 69.1604 27.5543 69.1578C27.6814 69.1578 27.8036 69.2071 27.8951 69.2956C27.9866 69.384 28.0403 69.5045 28.0447 69.6318V75.3561Z" fill="#066EF1"/>
<path d="M35.5438 73.9858H32.5814C32.6648 74.6439 33.192 75.054 33.886 75.054C34.2638 75.0568 34.6272 74.9093 34.8964 74.6439C34.9757 74.5672 35.0799 74.5213 35.19 74.5145C35.3001 74.5078 35.409 74.5406 35.4972 74.6071C35.5377 74.6444 35.5704 74.6894 35.5934 74.7395C35.6163 74.7896 35.6291 74.8438 35.6309 74.8989C35.6328 74.954 35.6236 75.0089 35.604 75.0604C35.5844 75.1119 35.5548 75.159 35.5168 75.1989C35.2996 75.4223 35.0382 75.5978 34.7494 75.7141C34.4605 75.8304 34.1506 75.8849 33.8394 75.8742C33.5464 75.8816 33.255 75.8285 32.9834 75.7182C32.7117 75.6079 32.4656 75.4429 32.2604 75.2332C32.0552 75.0236 31.8953 74.7739 31.7907 74.4998C31.686 74.2256 31.6388 73.9328 31.652 73.6395C31.6389 73.344 31.6882 73.0491 31.7968 72.774C31.9054 72.4989 32.0708 72.2499 32.2822 72.0433C32.487 71.8412 32.7306 71.6829 32.9983 71.5778C33.2659 71.4727 33.5521 71.423 33.8394 71.4318C34.1162 71.4223 34.3921 71.4689 34.6505 71.5689C34.9088 71.6689 35.1443 71.8203 35.3427 72.0138C35.5466 72.2147 35.7076 72.455 35.8159 72.7201C35.9242 72.9852 35.9776 73.2696 35.9729 73.556C35.9729 73.67 35.9277 73.7793 35.8472 73.8599C35.7667 73.9405 35.6576 73.9858 35.5438 73.9858ZM35.0533 73.3006C35.0264 73.0023 34.8848 72.7261 34.6582 72.5304C34.4317 72.3347 34.1381 72.2349 33.8394 72.252C33.5357 72.2329 33.2362 72.3309 33.0023 72.5259C32.7683 72.7208 32.6178 72.998 32.5814 73.3006H35.0533Z" fill="#066EF1"/>
<path d="M42.8075 71.8296C42.9023 71.9012 42.9665 72.0062 42.987 72.1234C43.0075 72.2406 42.9828 72.3612 42.9178 72.4608C42.8413 72.5545 42.7328 72.6167 42.6134 72.6352C42.4939 72.6538 42.3717 72.6275 42.2704 72.5614C42.0387 72.424 41.7746 72.3511 41.5053 72.3503C41.152 72.3462 40.8113 72.4811 40.5563 72.726C40.4319 72.8487 40.3332 72.9949 40.2658 73.1562C40.1984 73.3174 40.1637 73.4905 40.1637 73.6653C40.1637 73.8401 40.1984 74.0132 40.2658 74.1744C40.3332 74.3357 40.4319 74.4819 40.5563 74.6046C40.812 74.8473 41.1531 74.9788 41.5053 74.9705C41.7746 74.9697 42.0387 74.8967 42.2704 74.7593C42.3717 74.6932 42.4939 74.6669 42.6134 74.6855C42.7328 74.7041 42.8413 74.7663 42.9178 74.86C42.9828 74.9596 43.0075 75.0802 42.987 75.1974C42.9665 75.3145 42.9023 75.4195 42.8075 75.4911C42.4257 75.7561 41.9697 75.8929 41.5053 75.8816C40.9055 75.8977 40.3234 75.6772 39.8844 75.2677C39.4632 74.8395 39.2272 74.2626 39.2272 73.6616C39.2272 73.0606 39.4632 72.4837 39.8844 72.0556C40.3214 71.6467 40.9 71.4239 41.498 71.4343C41.9626 71.4237 42.4186 71.5613 42.8001 71.8272" fill="#066EF1"/>
<path d="M50.0539 72.0433C50.2675 72.249 50.4353 72.4975 50.5465 72.7725C50.6576 73.0476 50.7095 73.343 50.6989 73.6395C50.7091 73.9398 50.656 74.2388 50.5432 74.5172C50.4304 74.7956 50.2604 75.0471 50.0441 75.2554C49.6158 75.6545 49.0524 75.8763 48.4673 75.8763C47.8823 75.8763 47.3189 75.6545 46.8905 75.2554C46.6781 75.0451 46.5118 74.7928 46.402 74.5146C46.2922 74.2364 46.2415 73.9384 46.2529 73.6395C46.2406 73.3434 46.291 73.0481 46.4009 72.773C46.5108 72.4978 46.6777 72.2491 46.8905 72.0433C47.3229 71.6483 47.887 71.4293 48.4722 71.4293C49.0575 71.4293 49.6216 71.6483 50.0539 72.0433ZM49.3869 74.5972C49.5146 74.4737 49.6146 74.3245 49.6806 74.1594C49.7465 73.9943 49.7768 73.8171 49.7695 73.6395C49.7766 73.4659 49.7461 73.2928 49.6801 73.1322C49.614 72.9715 49.514 72.8271 49.3869 72.7088C49.2058 72.5253 48.9739 72.4003 48.7212 72.35C48.4684 72.2996 48.2065 72.3263 47.969 72.4264C47.7315 72.5266 47.5294 72.6957 47.3888 72.9119C47.2481 73.1281 47.1754 73.3815 47.1799 73.6395C47.1737 73.8161 47.2036 73.9922 47.2676 74.1569C47.3317 74.3215 47.4287 74.4714 47.5526 74.5972C47.8 74.832 48.1278 74.9628 48.4686 74.9628C48.8093 74.9628 49.1371 74.832 49.3845 74.5972" fill="#066EF1"/>
<path d="M55.2281 72.1612C55.3442 71.9074 55.5531 71.7079 55.8117 71.6037C56.0493 71.4931 56.3074 71.4336 56.5694 71.4294C56.8538 71.4102 57.1369 71.4822 57.3777 71.635C57.6184 71.7877 57.8043 72.0134 57.9084 72.2791C58.0395 72.0139 58.2446 71.7925 58.4987 71.6417C58.7529 71.4909 59.0453 71.4172 59.3405 71.4294C60.3876 71.4294 60.9786 72.1145 60.9786 73.3276V75.3561C60.9742 75.4833 60.9205 75.6039 60.829 75.6923C60.7375 75.7807 60.6153 75.8301 60.4882 75.83C60.3655 75.8268 60.249 75.7752 60.164 75.6865C60.0791 75.5977 60.0325 75.479 60.0345 75.3561V73.4111C60.0345 72.7555 59.6789 72.3527 59.1321 72.3527C58.5116 72.3527 58.1021 72.8095 58.1021 73.4946V75.3561C58.0977 75.4833 58.044 75.6039 57.9525 75.6923C57.861 75.7807 57.7388 75.8301 57.6117 75.83C57.4885 75.8274 57.3714 75.7761 57.2859 75.6873C57.2004 75.5985 57.1536 75.4794 57.1555 75.3561V73.3915C57.1555 72.7432 56.8 72.3503 56.2899 72.3503C55.6793 72.3503 55.2134 72.7162 55.2134 73.4922V75.3536C55.2089 75.4809 55.1553 75.6014 55.0638 75.6898C54.9723 75.7783 54.8501 75.8276 54.7229 75.8276C54.5998 75.825 54.4826 75.7737 54.3972 75.6849C54.3117 75.596 54.2648 75.4769 54.2668 75.3536V71.95C54.2712 71.8227 54.3249 71.7022 54.4164 71.6138C54.5079 71.5253 54.6301 71.476 54.7572 71.476C54.8804 71.4786 54.9975 71.5299 55.083 71.6187C55.1684 71.7076 55.2153 71.8266 55.2134 71.95L55.2281 72.1612Z" fill="#066EF1"/>
<path d="M68.5978 75.3561C68.5934 75.4833 68.5397 75.6039 68.4482 75.6923C68.3567 75.7807 68.2345 75.8301 68.1074 75.83C67.9847 75.8268 67.8682 75.7752 67.7832 75.6865C67.6983 75.5977 67.6517 75.479 67.6537 75.3561V75.1449C67.522 75.3734 67.3315 75.5623 67.102 75.6919C66.8725 75.8215 66.6125 75.887 66.3491 75.8816C65.3192 75.8816 64.7257 75.2161 64.7257 74.0128V71.9574C64.7302 71.8301 64.7838 71.7095 64.8753 71.6211C64.9668 71.5327 65.089 71.4833 65.2162 71.4834C65.3389 71.4866 65.4554 71.5382 65.5403 71.6269C65.6253 71.7157 65.6718 71.8344 65.6698 71.9574V73.9023C65.6698 74.5678 66.0156 74.9607 66.5624 74.9607C67.1829 74.9607 67.6586 74.5948 67.6586 73.8212V71.9574C67.6631 71.8301 67.7167 71.7095 67.8082 71.6211C67.8997 71.5327 68.0219 71.4833 68.1491 71.4834C68.2718 71.4866 68.3883 71.5382 68.4732 71.6269C68.5582 71.7157 68.6047 71.8344 68.6027 71.9574L68.5978 75.3561Z" fill="#066EF1"/>
<path d="M72.4259 71.9499C72.4303 71.8227 72.484 71.7021 72.5755 71.6137C72.667 71.5253 72.7892 71.4759 72.9163 71.476C73.0395 71.4785 73.1566 71.5298 73.2421 71.6187C73.3275 71.7075 73.3744 71.8266 73.3725 71.9499V72.1611C73.5041 71.9326 73.6947 71.7437 73.9241 71.6141C74.1536 71.4845 74.4137 71.419 74.6771 71.4244C75.7046 71.4244 76.298 72.0899 76.298 73.2932V75.3486C76.2936 75.4759 76.2399 75.5964 76.1484 75.6849C76.0569 75.7733 75.9347 75.8227 75.8076 75.8226C75.6844 75.82 75.5673 75.7687 75.4818 75.6799C75.3963 75.5911 75.3495 75.472 75.3514 75.3486V73.4037C75.3514 72.7382 75.0057 72.3453 74.4588 72.3453C73.8384 72.3453 73.3651 72.7112 73.3651 73.4847V75.3486C73.3607 75.4759 73.307 75.5964 73.2155 75.6849C73.124 75.7733 73.0018 75.8227 72.8747 75.8226C72.7515 75.82 72.6344 75.7687 72.5489 75.6799C72.4634 75.5911 72.4165 75.472 72.4185 75.3486L72.4259 71.9499Z" fill="#066EF1"/>
<path d="M81.1656 69.7963C81.1657 69.8764 81.1496 69.9558 81.1182 70.0295C81.0869 70.1033 81.041 70.1699 80.9832 70.2254C80.9255 70.281 80.8572 70.3242 80.7823 70.3526C80.7074 70.381 80.6276 70.3939 80.5477 70.3906C80.4667 70.3958 80.3855 70.3843 80.3091 70.3569C80.2327 70.3295 80.1628 70.2866 80.1036 70.231C80.0444 70.1755 79.9972 70.1083 79.965 70.0337C79.9327 69.9592 79.9161 69.8788 79.9161 69.7975C79.9161 69.7163 79.9327 69.6359 79.965 69.5613C79.9972 69.4867 80.0444 69.4196 80.1036 69.364C80.1628 69.3084 80.2327 69.2656 80.3091 69.2382C80.3855 69.2107 80.4667 69.1993 80.5477 69.2045C80.6275 69.2008 80.7073 69.2134 80.7821 69.2415C80.857 69.2696 80.9253 69.3126 80.9831 69.368C81.0409 69.4233 81.0868 69.4898 81.1182 69.5634C81.1496 69.637 81.1657 69.7163 81.1656 69.7963ZM80.5379 75.83C80.4147 75.8274 80.2976 75.7761 80.2121 75.6873C80.1266 75.5985 80.0797 75.4794 80.0817 75.356V71.95C80.0797 71.8266 80.1266 71.7075 80.2121 71.6187C80.2976 71.5299 80.4147 71.4786 80.5379 71.476C80.665 71.4759 80.7872 71.5253 80.8787 71.6137C80.9702 71.7022 81.0239 71.8227 81.0283 71.95V75.356C81.0239 75.4833 80.9702 75.6039 80.8787 75.6923C80.7872 75.7807 80.665 75.8301 80.5379 75.83Z" fill="#066EF1"/>
<path d="M88.1938 71.8296C88.2887 71.9012 88.3528 72.0064 88.3729 72.1237C88.3929 72.2411 88.3675 72.3616 88.3017 72.4608C88.2252 72.5539 88.1173 72.6156 87.9983 72.6342C87.8794 72.6527 87.7578 72.6268 87.6567 72.5614C87.4243 72.4237 87.1592 72.3508 86.8892 72.3503C86.5367 72.3466 86.1968 72.4815 85.9426 72.726C85.8183 72.8487 85.7195 72.9949 85.6521 73.1562C85.5847 73.3174 85.55 73.4905 85.55 73.6653C85.55 73.8401 85.5847 74.0132 85.6521 74.1744C85.7195 74.3357 85.8183 74.4819 85.9426 74.6046C86.1975 74.8469 86.5378 74.9784 86.8892 74.9705C87.1592 74.97 87.4243 74.8971 87.6567 74.7593C87.7578 74.6939 87.8794 74.6681 87.9983 74.6866C88.1173 74.7052 88.2252 74.7669 88.3017 74.86C88.3675 74.9591 88.3929 75.0797 88.3729 75.197C88.3528 75.3143 88.2887 75.4195 88.1938 75.4911C87.8109 75.7557 87.3543 75.8924 86.8892 75.8816C86.293 75.896 85.7148 75.6766 85.278 75.2701C84.8569 74.8419 84.6208 74.265 84.6208 73.6641C84.6208 73.0631 84.8569 72.4862 85.278 72.058C85.7144 71.6497 86.292 71.427 86.8892 71.4367C87.3545 71.4267 87.8112 71.5642 88.1938 71.8296Z" fill="#066EF1"/>
<path d="M95.2195 75.1718C95.0554 75.3962 94.8393 75.5773 94.5899 75.6996C94.3404 75.822 94.065 75.8819 93.7874 75.8742C93.1991 75.8742 92.635 75.6402 92.219 75.2236C91.803 74.807 91.5693 74.2421 91.5693 73.653C91.5693 73.0639 91.803 72.4989 92.219 72.0824C92.635 71.6658 93.1991 71.4318 93.7874 71.4318C94.0642 71.423 94.339 71.4813 94.5884 71.6019C94.8378 71.7225 95.0543 71.9017 95.2195 72.1243V71.9499C95.2176 71.8266 95.2644 71.7075 95.3499 71.6187C95.4354 71.5299 95.5525 71.4786 95.6756 71.476C95.8028 71.4759 95.925 71.5253 96.0165 71.6137C96.108 71.7021 96.1616 71.8227 96.1661 71.9499V75.356C96.1616 75.4833 96.108 75.6038 96.0165 75.6922C95.925 75.7807 95.8028 75.83 95.6756 75.83C95.5525 75.8274 95.4354 75.7761 95.3499 75.6873C95.2644 75.5984 95.2176 75.4793 95.2195 75.356V75.1718ZM94.8149 72.6989C94.5677 72.4674 94.2411 72.34 93.9027 72.3429C93.7312 72.3382 93.5605 72.3682 93.4008 72.4311C93.2411 72.494 93.0957 72.5884 92.9732 72.7088C92.8492 72.8289 92.7519 72.9739 92.6877 73.1343C92.6234 73.2946 92.5937 73.4668 92.6005 73.6395C92.5941 73.8133 92.6233 73.9867 92.6862 74.1489C92.7491 74.3111 92.8445 74.4587 92.9664 74.5826C93.0884 74.7066 93.2343 74.8042 93.3953 74.8697C93.5563 74.9351 93.729 74.9669 93.9027 74.9631C94.0774 74.969 94.2514 74.9387 94.4139 74.8741C94.5764 74.8096 94.7238 74.7121 94.847 74.5879C94.9701 74.4636 95.0663 74.3153 95.1296 74.1521C95.1929 73.9889 95.2218 73.8144 95.2146 73.6395C95.2217 73.4628 95.1895 73.2868 95.1204 73.1242C95.0513 72.9615 94.9469 72.8163 94.8149 72.6989Z" fill="#066EF1"/>
<path d="M103.322 71.8297C103.417 71.9012 103.481 72.0064 103.501 72.1238C103.521 72.2411 103.496 72.3617 103.43 72.4608C103.353 72.5539 103.245 72.6156 103.126 72.6342C103.008 72.6527 102.886 72.6269 102.785 72.5615C102.552 72.4237 102.287 72.3508 102.017 72.3503C101.665 72.3466 101.325 72.4815 101.071 72.726C100.946 72.8487 100.848 72.9949 100.78 73.1562C100.713 73.3174 100.678 73.4905 100.678 73.6653C100.678 73.8401 100.713 74.0132 100.78 74.1744C100.848 74.3357 100.946 74.4819 101.071 74.6046C101.326 74.8469 101.666 74.9784 102.017 74.9705C102.287 74.97 102.552 74.8971 102.785 74.7593C102.886 74.6939 103.008 74.6681 103.126 74.6866C103.245 74.7052 103.353 74.7669 103.43 74.86C103.496 74.9592 103.521 75.0797 103.501 75.197C103.481 75.3144 103.417 75.4196 103.322 75.4911C102.939 75.7557 102.482 75.8924 102.017 75.8816C101.421 75.8954 100.843 75.6751 100.406 75.2677C99.985 74.8395 99.749 74.2626 99.749 73.6616C99.749 73.0606 99.985 72.4838 100.406 72.0556C100.843 71.6473 101.42 71.4246 102.017 71.4343C102.483 71.4242 102.939 71.5617 103.322 71.8272" fill="#066EF1"/>
<path d="M108.14 69.7963C108.141 69.8765 108.125 69.9561 108.094 70.03C108.063 70.1039 108.017 70.1707 107.959 70.2262C107.901 70.2818 107.833 70.3251 107.758 70.3533C107.683 70.3816 107.603 70.3943 107.523 70.3906C107.442 70.3958 107.36 70.3843 107.284 70.3569C107.208 70.3295 107.138 70.2866 107.078 70.231C107.019 70.1755 106.972 70.1083 106.94 70.0337C106.908 69.9592 106.891 69.8788 106.891 69.7975C106.891 69.7163 106.908 69.6359 106.94 69.5613C106.972 69.4867 107.019 69.4196 107.078 69.364C107.138 69.3084 107.208 69.2656 107.284 69.2382C107.36 69.2107 107.442 69.1993 107.523 69.2045C107.602 69.2008 107.682 69.2134 107.757 69.2415C107.832 69.2696 107.9 69.3126 107.958 69.368C108.016 69.4233 108.062 69.4898 108.093 69.5634C108.124 69.637 108.141 69.7163 108.14 69.7963ZM107.513 75.83C107.39 75.8274 107.272 75.7761 107.187 75.6873C107.101 75.5985 107.055 75.4794 107.057 75.356V71.95C107.055 71.8266 107.101 71.7075 107.187 71.6187C107.272 71.5299 107.39 71.4786 107.513 71.476C107.64 71.4759 107.762 71.5253 107.854 71.6137C107.945 71.7022 107.999 71.8227 108.003 71.95V75.356C107.999 75.4833 107.945 75.6039 107.854 75.6923C107.762 75.7807 107.64 75.8301 107.513 75.83Z" fill="#066EF1"/>
<path d="M115.387 72.0433C115.601 72.2486 115.77 72.4969 115.881 72.772C115.993 73.0471 116.045 73.3428 116.034 73.6395C116.045 73.94 115.991 74.2393 115.878 74.5178C115.765 74.7962 115.594 75.0476 115.377 75.2554C114.95 75.6554 114.388 75.879 113.804 75.8813C113.219 75.8836 112.656 75.6644 112.226 75.2676C112.014 75.0571 111.848 74.8047 111.738 74.5266C111.628 74.2485 111.577 73.9506 111.588 73.6518C111.576 73.3558 111.627 73.0606 111.737 72.7855C111.847 72.5104 112.013 72.2617 112.226 72.0556C112.658 71.6606 113.222 71.4416 113.808 71.4416C114.393 71.4416 114.957 71.6606 115.389 72.0556L115.387 72.0433ZM114.725 74.6095C114.852 74.4856 114.952 74.3363 115.018 74.1713C115.083 74.0063 115.114 73.8293 115.107 73.6518C115.114 73.4783 115.083 73.3054 115.017 73.1448C114.951 72.9843 114.851 72.8398 114.725 72.7211C114.477 72.4863 114.15 72.3555 113.809 72.3555C113.468 72.3555 113.14 72.4863 112.893 72.7211C112.769 72.8415 112.672 72.9865 112.607 73.1468C112.543 73.3071 112.512 73.479 112.518 73.6518C112.512 73.8286 112.542 74.0047 112.607 74.1693C112.671 74.334 112.769 74.4838 112.893 74.6095C113.14 74.8442 113.468 74.9751 113.809 74.9751C114.15 74.9751 114.477 74.8442 114.725 74.6095Z" fill="#066EF1"/>
<path d="M119.624 71.9499C119.629 71.8227 119.683 71.7021 119.774 71.6137C119.866 71.5253 119.988 71.4759 120.115 71.476C120.238 71.4786 120.355 71.5299 120.441 71.6187C120.526 71.7075 120.573 71.8266 120.571 71.9499V72.1611C120.703 71.933 120.893 71.7443 121.122 71.6147C121.351 71.4852 121.61 71.4194 121.873 71.4244C122.903 71.4244 123.497 72.0899 123.497 73.2932V75.3486C123.492 75.4759 123.439 75.5964 123.347 75.6849C123.256 75.7733 123.133 75.8227 123.006 75.8226C122.883 75.82 122.766 75.7687 122.68 75.6799C122.595 75.5911 122.548 75.472 122.55 75.3486V73.4037C122.55 72.7382 122.204 72.3453 121.657 72.3453C121.037 72.3453 120.564 72.7112 120.564 73.4847V75.3486C120.559 75.4759 120.506 75.5964 120.414 75.6849C120.323 75.7733 120.2 75.8227 120.073 75.8226C119.95 75.82 119.833 75.7687 119.748 75.6799C119.662 75.5911 119.615 75.472 119.617 75.3486L119.624 71.9499Z" fill="#066EF1"/>
<path d="M130.934 73.9858H127.972C128.012 74.2971 128.169 74.5812 128.412 74.7799C128.655 74.9786 128.964 75.0767 129.277 75.054C129.654 75.0568 130.018 74.9093 130.287 74.6439C130.367 74.567 130.471 74.521 130.582 74.5142C130.692 74.5075 130.802 74.5404 130.89 74.6071C130.93 74.6447 130.962 74.6899 130.985 74.7401C131.008 74.7903 131.02 74.8444 131.022 74.8994C131.023 74.9544 131.014 75.0092 130.994 75.0606C130.975 75.112 130.945 75.159 130.907 75.1989C130.69 75.4223 130.429 75.5978 130.14 75.7141C129.851 75.8304 129.541 75.8849 129.23 75.8742C128.937 75.8816 128.646 75.8285 128.374 75.7182C128.102 75.6079 127.856 75.4429 127.651 75.2332C127.446 75.0236 127.286 74.7739 127.181 74.4998C127.077 74.2256 127.029 73.9328 127.043 73.6395C127.029 73.344 127.079 73.0491 127.187 72.774C127.296 72.4989 127.461 72.2499 127.673 72.0433C127.878 71.8412 128.121 71.6829 128.389 71.5778C128.656 71.4727 128.943 71.423 129.23 71.4318C129.507 71.4223 129.783 71.4689 130.041 71.5689C130.299 71.6689 130.535 71.8203 130.733 72.0138C130.934 72.2147 131.093 72.4542 131.2 72.7179C131.306 72.9816 131.359 73.2642 131.354 73.5487C131.354 73.6626 131.308 73.7719 131.228 73.8525C131.147 73.9331 131.038 73.9784 130.925 73.9784L130.934 73.9858ZM130.434 73.2933C130.407 72.9949 130.266 72.7187 130.039 72.523C129.812 72.3273 129.519 72.2275 129.22 72.2447C128.916 72.2256 128.617 72.3235 128.383 72.5185C128.149 72.7135 127.999 72.9907 127.962 73.2933H130.434Z" fill="#066EF1"/>
<path d="M134.946 74.3958C134.989 74.3725 135.036 74.3587 135.084 74.3554C135.132 74.3522 135.181 74.3597 135.226 74.3772C135.271 74.3948 135.312 74.422 135.345 74.4571C135.379 74.4921 135.404 74.5341 135.42 74.58C135.509 74.7438 135.642 74.8788 135.805 74.9692C135.968 75.0597 136.153 75.1019 136.339 75.0908C136.778 75.0908 137.075 74.8993 137.075 74.58C137.075 74.3615 136.884 74.2043 136.501 74.1134L135.927 73.9759C135.089 73.75 134.701 73.2736 134.75 72.5541C134.765 72.3926 134.817 72.2368 134.902 72.0987C134.987 71.9607 135.103 71.8443 135.241 71.7584C135.542 71.5385 135.907 71.4229 136.28 71.4293C136.934 71.4293 137.39 71.6397 137.649 72.0605C137.706 72.1456 137.729 72.2491 137.713 72.3505C137.698 72.4519 137.645 72.5438 137.565 72.6081C137.401 72.7456 137.22 72.726 137.018 72.5541C136.819 72.3666 136.556 72.2622 136.283 72.2618C136.173 72.2458 136.06 72.2584 135.956 72.2984C135.852 72.3384 135.76 72.4044 135.689 72.4902C135.655 72.5434 135.633 72.6042 135.627 72.6674C135.62 72.7307 135.629 72.7945 135.653 72.8536C135.689 72.974 135.873 73.0747 136.19 73.1655L136.847 73.3276C137.676 73.5388 137.96 74.0496 137.96 74.5874C137.96 75.3929 137.256 75.8742 136.263 75.8742C135.938 75.8869 135.617 75.8017 135.341 75.6297C135.066 75.4576 134.848 75.2066 134.716 74.9091C134.695 74.8606 134.685 74.8084 134.686 74.7557C134.686 74.7031 134.698 74.6512 134.719 74.6031C134.74 74.555 134.771 74.5118 134.81 74.4762C134.849 74.4405 134.894 74.4132 134.944 74.3958" fill="#066EF1"/>
</svg>
