<svg width="35" height="35" viewBox="0 0 35 35" fill="none" xmlns="http://www.w3.org/2000/svg">
<path d="M31.7083 14.0623H30.5V14H17V20H25.4773C24.2405 23.4928 20.9172 26 17 26C12.0297 26 8 21.9702 8 17C8 12.0297 12.0297 8 17 8C19.2943 8 21.3815 8.8655 22.9708 10.2792L27.2135 6.0365C24.5345 3.53975 20.951 2 17 2C8.71625 2 2 8.71625 2 17C2 25.2838 8.71625 32 17 32C25.2838 32 32 25.2838 32 17C32 15.9943 31.8965 15.0125 31.7083 14.0623Z" fill="#FFC107"/>
<path d="M3.72949 10.0182L8.65774 13.6325C9.99124 10.331 13.2207 8 17 8C19.2942 8 21.3815 8.8655 22.9707 10.2792L27.2135 6.0365C24.5345 3.53975 20.951 2 17 2C11.2385 2 6.24199 5.25275 3.72949 10.0182Z" fill="#FF3D00"/>
<path d="M17.0012 32C20.8757 32 24.3962 30.5173 27.058 28.106L22.4155 24.1775C20.8589 25.3613 18.9568 26.0016 17.0012 26C13.0997 26 9.78696 23.5123 8.53896 20.0405L3.64746 23.8093C6.12996 28.667 11.1715 32 17.0012 32Z" fill="#4CAF50"/>
<path d="M31.7087 14.0623H30.5005V14H17.0005V20H25.4777C24.8861 21.6623 23.8205 23.1149 22.4125 24.1782L22.4147 24.1767L27.0572 28.1052C26.7287 28.4037 32.0005 24.5 32.0005 17C32.0005 15.9942 31.897 15.0125 31.7087 14.0623Z" fill="#1976D2"/>
</svg>
