<svg width="151" height="60" viewBox="0 0 151 60" fill="none" xmlns="http://www.w3.org/2000/svg">
<path d="M71.9973 59.6676C66.1287 59.6676 60.3918 57.9249 55.5122 54.6599C50.6326 51.3948 46.8294 46.7541 44.5836 41.3246C42.3378 35.895 41.7502 29.9205 42.8951 24.1565C44.04 18.3926 46.866 13.098 51.0158 8.9424C55.1655 4.7868 60.4526 1.95681 66.2085 0.810281C71.9644 -0.336245 77.9305 0.252192 83.3524 2.50119C88.7743 4.75018 93.4085 8.55871 96.669 13.4452C99.9294 18.3316 101.67 24.0766 101.67 29.9535C101.658 37.8306 98.5281 45.3817 92.9659 50.9516C87.4038 56.5216 79.8633 59.6559 71.9973 59.6676V59.6676ZM71.9973 28.205C71.6539 28.205 71.3182 28.307 71.0327 28.498C70.7472 28.6891 70.5247 28.9606 70.3933 29.2783C70.2619 29.596 70.2275 29.9456 70.2945 30.2828C70.3615 30.6201 70.5268 30.9299 70.7696 31.1731C71.0124 31.4162 71.3218 31.5818 71.6586 31.6489C71.9954 31.716 72.3445 31.6815 72.6617 31.5499C72.979 31.4184 73.2501 31.1955 73.4409 30.9096C73.6317 30.6237 73.7335 30.2875 73.7335 29.9436C73.7329 29.4827 73.5497 29.0409 73.2243 28.7149C72.8988 28.389 72.4576 28.2056 71.9973 28.205Z" fill="#FF0000"/>
<path d="M146.159 7.73659C143.538 5.11381 139.984 3.6405 136.279 3.6405C132.573 3.6405 129.019 5.11381 126.398 7.73659L114.061 20.0888L101.726 7.73659C99.0821 5.22993 95.5658 3.85531 91.9252 3.90519C88.2845 3.95507 84.8071 5.42551 82.2325 8.00367C79.658 10.5818 78.1896 14.0642 78.1398 17.71C78.09 21.3557 79.4627 24.877 81.9658 27.5247L114.061 59.6675L146.159 27.5247C148.778 24.9 150.249 21.3412 150.249 17.6307C150.249 13.9201 148.778 10.3613 146.159 7.73659" fill="#066EF1"/>
<path d="M45.6502 31.6798H28.2048V14.2123C28.2048 10.4999 26.7321 6.93957 24.1107 4.31451C21.4894 1.68946 17.9341 0.214722 14.2269 0.214722C10.5197 0.214722 6.96438 1.68946 4.34302 4.31451C1.72165 6.93957 0.248993 10.4999 0.248993 14.2123V59.6675H45.6404C49.3475 59.6675 52.9029 58.1928 55.5242 55.5677C58.1456 52.9427 59.6183 49.3823 59.6183 45.67C59.6183 41.9576 58.1456 38.3972 55.5242 35.7722C52.9029 33.1471 49.3475 31.6724 45.6404 31.6724" fill="#066EF1"/>
<path d="M45.6502 31.6798H42.374C42.652 36.3725 44.0372 40.9323 46.4158 44.9851C48.7944 49.0379 52.0988 52.4681 56.0576 54.9944C57.8597 52.9838 59.0413 50.4934 59.4595 47.8244C59.8776 45.1554 59.5145 42.4222 58.4139 39.9556C57.3133 37.489 55.5226 35.3946 53.2582 33.9258C50.9939 32.4571 48.353 31.677 45.6552 31.6798H45.6502ZM87.2259 4.4386C84.9935 5.21677 82.9952 6.55031 81.4186 8.31401C79.842 10.0777 78.7389 12.2137 78.2128 14.5214C77.6867 16.8292 77.7548 19.2329 78.4109 21.5071C79.0669 23.7812 80.2893 25.8511 81.9633 27.5223L98.2365 43.8233C101.793 37.0967 102.634 29.2588 100.585 21.9291C98.5359 14.5994 93.7535 8.33801 87.2259 4.4386" fill="#052B6C"/>
</svg>
