<svg width="82" height="81" viewBox="0 0 82 81" fill="none" xmlns="http://www.w3.org/2000/svg">
<path d="M41.8849 63.5865L0 36.5238V80.9067H82V36.5238L41.8849 63.5865Z" fill="#00CFE8"/>
<path d="M11.7986 40.3126L0 33.2763L11.7986 26.24V40.3126Z" fill="#00CFE8"/>
<path d="M72.5611 40.3126L82 33.2763L72.5611 26.24V40.3126Z" fill="#00CFE8"/>
<path d="M67.88 40.9903L41.805 57.8454L16.3066 40.9968V14.6264C16.3066 12.7672 16.3179 12.0643 16.4858 11.5225C16.8807 10.2482 17.8848 9.25459 19.1632 8.87323C19.7067 8.71106 20.4097 8.70716 22.2688 8.72676L62.0422 9.14599C63.8662 9.16522 64.5552 9.18346 65.0887 9.35259C66.3428 9.75014 67.3212 10.7389 67.7055 11.9971C67.869 12.5324 67.88 13.2216 67.88 15.0457V40.9903Z" stroke="#00CFE8" stroke-width="2"/>
<path d="M48.1067 4.92H37.1733L41.0854 1.71922C42.2783 0.743237 44.0166 0.829937 45.1064 1.91977L48.1067 4.92Z" fill="#00CFE8"/>
<rect x="22.96" y="16.4" width="9.84" height="9.84" fill="#00CFE8"/>
<rect x="22.96" y="31.7067" width="9.84" height="9.84" fill="#00CFE8"/>
<path d="M39.9066 18.5867H61.2266M39.9066 27.88H61.2266M40.4533 36.6267H61.7733M40.4533 44.28H61.7733" stroke="#00CFE8" stroke-width="2"/>
</svg>
